HIERARCHY
ROOT Hips
{
	OFFSET 0.00 0.00 0.00
	CHANNELS 6 Xposition Yposition Zposition Xrotation Yrotation Zrotation
	JOINT Spine
	{
		OFFSET 0.00000 5.89385 0.00000
		CHANNELS 3 Xrotation Yrotation Zrotation
		JOINT Head
		{
			OFFSET 0.00000 16.44715 0.00000
			CHANNELS 3 Xrotation Yrotation Zrotation
			End Site
			{
				OFFSET 0.00000 4.52755 0.00000
			}
		}
		JOINT LeftShoulder
		{
			OFFSET 0.00000 10.90038 0.00000
			CHANNELS 3 Xrotation Yrotation Zrotation
			JOINT LeftArm
			{
				OFFSET 8.21946 0.00000 0.00000
				CHANNELS 3 Xrotation Yrotation Zrotation
				JOINT LeftForeArm
				{
					OFFSET 11.09494 0.00000 0.00000
					CHANNELS 3 Yrotation Zrotation Xrotation
					JOINT LeftHand
					{
						OFFSET 9.10388 0.00000 0.00000
						CHANNELS 3 Xrotation Yrotation Zrotation
						JOINT LeftHandThumb1
						{
							OFFSET 0.00000 0.00000 0.00000
							CHANNELS 3 Xrotation Zrotation Yrotation
							End Site
							{
								OFFSET 0.00000 0.00000 3.93700
							}
						}
						End Site
						{
							OFFSET 3.93700 0.00000 0.00000
						}
					}
				}
			}
		}
		JOINT RightShoulder
		{
			OFFSET 0.00000 10.90038 0.00000
			CHANNELS 3 Xrotation Yrotation Zrotation
			JOINT RightArm
			{
				OFFSET -8.21946 0.00000 0.00000
				CHANNELS 3 Xrotation Yrotation Zrotation
				JOINT RightForeArm
				{
					OFFSET -11.09494 0.00000 0.00000
					CHANNELS 3 Yrotation Zrotation Xrotation
					JOINT RightHand
					{
						OFFSET -9.10388 0.00000 0.00000
						CHANNELS 3 Xrotation Yrotation Zrotation
						JOINT RightHandThumb1
						{
							OFFSET 0.00000 0.00000 0.00000
							CHANNELS 3 Xrotation Zrotation Yrotation
							End Site
							{
								OFFSET 0.00000 0.00000 3.93700
							}
						}
						End Site
						{
							OFFSET -3.93700 0.00000 0.00000
						}
					}
				}
			}
		}
	}
	JOINT LeftUpLeg
	{
		OFFSET 3.69794 0.00000 0.00000
		CHANNELS 3 Xrotation Yrotation Zrotation
		JOINT LeftLeg
		{
			OFFSET 0.00000 -16.18147 0.00000
			CHANNELS 3 Xrotation Yrotation Zrotation
			JOINT LeftFoot
			{
				OFFSET 0.00000 -16.50139 0.00000
				CHANNELS 3 Xrotation Yrotation Zrotation
				JOINT LeftToeBase
				{
					OFFSET 0.00000 -1.65857 6.18989
					CHANNELS 3 Xrotation Yrotation Zrotation
					End Site
					{
						OFFSET 0.00000 0.00000 2.95275
					}
				}
			}
		}
	}
	JOINT RightUpLeg
	{
		OFFSET -3.69794 0.00000 0.00000
		CHANNELS 3 Xrotation Yrotation Zrotation
		JOINT RightLeg
		{
			OFFSET 0.00000 -16.18147 0.00000
			CHANNELS 3 Xrotation Yrotation Zrotation
			JOINT RightFoot
			{
				OFFSET 0.00000 -16.50139 0.00000
				CHANNELS 3 Xrotation Yrotation Zrotation
				JOINT RightToeBase
				{
					OFFSET 0.00000 -1.65857 6.18989
					CHANNELS 3 Xrotation Yrotation Zrotation
					End Site
					{
						OFFSET 0.00000 0.00000 2.95275
					}
				}
			}
		}
	}
}
MOTION
Frames: 13
Frame Time: 0.008333
 3.4608 35.9224 4.1201 109.0222 -59.7751 113.1363 -31.0701 -12.6060 -10.0090 53.2058 -22.1131 1.0334 5.6280 -14.1350 29.7972 -103.9200 -38.9387 -142.1864 -93.9262 -0.0000 -0.0573 2.1058 7.4739 -15.7845 33.1476 -0.0000 26.2537 63.7073 -30.6178 -8.7176 -37.7864 -1.4056 58.7980 34.0192 0.0000 -23.2395 6.8081 7.9474 -40.8096 32.8623 0.0000 -24.3270 -31.3829 12.4634 2.3598 19.9221 -0.0000 0.0000 -15.5282 17.6795 -7.7112 8.6551 0.0000 -0.0000 -34.7475 2.2700 -10.9923 16.8215 0.0000 0.0000 -10.4677 -5.4229 19.6609 13.2816 0.0000 -0.0000
 3.4642 35.9226 4.1187 108.7561 -59.7786 112.8553 -31.0937 -12.6561 -10.0381 53.2842 -22.1453 0.9266 5.5939 -14.0917 29.6569 -104.0036 -38.9546 -142.2586 -93.8841 -0.0000 -0.1491 2.0838 7.4384 -15.6986 33.1476 -0.0000 26.2537 63.8116 -30.7020 -8.7079 -36.9839 0.1319 58.6167 31.4489 0.0000 -21.4743 6.7929 8.0907 -40.2432 32.8623 0.0000 -24.3270 -31.4577 12.3854 2.3538 19.9339 0.0000 -0.0000 -15.5112 17.6202 -7.7224 8.6635 -0.0000 0.0000 -34.7836 2.2015 -11.0072 16.8422 -0.0000 0.0000 -10.4900 -5.4890 19.6541 13.3046 0.0000 0.0000
 3.4656 35.9220 4.1183 108.5444 -59.7942 112.6404 -31.0941 -12.6771 -10.0645 53.3339 -22.1709 0.7623 5.5449 -14.0769 29.5509 -104.0093 -38.9584 -142.3220 -93.8536 -0.0000 -0.1698 2.0653 7.3875 -15.6670 33.1476 -0.0000 26.2537 63.8889 -30.7834 -8.7328 -36.0802 1.6856 58.4607 29.0390 0.0000 -19.5717 6.6467 8.1820 -39.3105 32.8623 0.0000 -24.3270 -31.4908 12.3521 2.3422 19.9246 0.0000 -0.0000 -15.4858 17.5441 -7.7654 8.6288 0.0000 -0.0000 -34.7963 2.1673 -11.0287 16.8645 -0.0000 -0.0000 -10.5236 -5.5655 19.6615 13.3218 0.0000 -0.0000
 3.4695 35.9219 4.1159 108.2969 -59.7875 112.3784 -31.1277 -12.7329 -10.0781 53.3623 -22.1450 0.5825 5.6658 -13.9000 29.4329 -104.2894 -39.0004 -142.4374 -93.8169 -0.0000 -0.2231 2.0691 7.4455 -15.5787 33.1476 -0.0000 26.2537 63.9929 -30.8662 -8.7649 -35.0900 3.3831 58.3171 26.8545 0.0000 -17.5877 6.1905 7.9014 -38.2745 32.8623 0.0000 -24.3270 -31.5646 12.2966 2.3437 19.9240 -0.0000 0.0000 -15.4726 17.4829 -7.7799 8.6719 -0.0000 0.0000 -34.8320 2.1383 -11.0328 16.8841 -0.0000 0.0000 -10.5528 -5.6615 19.6264 13.3256 0.0000 -0.0000
 3.4723 35.9218 4.1145 108.0907 -59.7757 112.1709 -31.1590 -12.7358 -10.0951 53.4073 -22.1603 0.4210 5.7164 -13.8379 29.3622 -104.4965 -39.0831 -142.5656 -93.8365 -0.0000 0.0221 2.0501 7.5451 -15.2496 33.1476 -0.0000 26.2537 64.1394 -30.9808 -8.7932 -34.0614 5.0048 58.2402 24.9248 0.0000 -15.5852 5.8845 8.1700 -35.9518 32.8623 0.0000 -24.3270 -31.6250 12.2694 2.3356 19.9172 0.0000 0.0000 -15.4487 17.4163 -7.8024 8.7037 -0.0000 0.0000 -34.8684 2.1450 -11.0407 16.9118 -0.0000 0.0000 -10.5806 -5.7765 19.6089 13.3369 0.0000 -0.0000
 3.4788 35.9213 4.1127 107.8424 -59.7621 111.9107 -31.1840 -12.7606 -10.0983 53.4329 -22.1927 0.3043 5.7179 -13.7535 29.2501 -104.6386 -39.1315 -142.6603 -93.7986 -0.0000 -0.1499 2.0441 7.5455 -15.2060 33.1476 -0.0000 26.2537 64.3153 -31.1097 -8.7730 -33.0064 6.6913 58.1372 23.2722 0.0000 -13.7050 5.3478 8.0277 -33.8338 32.8623 0.0000 -24.3270 -31.7176 12.1975 2.3325 19.9332 -0.0000 0.0000 -15.4326 17.3763 -7.8247 8.6960 0.0000 0.0000 -34.9187 2.1340 -11.0426 16.9444 0.0000 -0.0000 -10.6100 -5.8740 19.5416 13.3216 -0.0000 -0.0000
 3.4812 35.9217 4.1102 107.6340 -59.7725 111.6945 -31.1712 -12.7328 -10.1176 53.4789 -22.2159 0.2568 5.6363 -13.8033 29.2207 -104.5153 -39.1032 -142.7263 -93.7618 -0.0000 -0.3347 2.0245 7.3960 -15.3550 33.1476 -0.0000 26.2537 64.5070 -31.2181 -8.7004 -31.8251 8.3830 58.0067 21.8902 0.0000 -11.9838 4.8789 8.1102 -31.1759 32.8623 0.0000 -24.3270 -31.7674 12.1340 2.3260 19.9471 -0.0000 0.0000 -15.4111 17.3297 -7.8480 8.6998 -0.0000 0.0000 -34.9311 2.1180 -11.0495 16.9656 -0.0000 0.0000 -10.6314 -5.9663 19.5190 13.3236 -0.0000 -0.0000
 3.4846 35.9214 4.1076 107.4439 -59.7773 111.5041 -31.1525 -12.6805 -10.1455 53.5075 -22.2349 0.2464 5.6107 -13.7893 29.1884 -104.4787 -39.0432 -142.7835 -93.6713 -0.0000 -0.9050 2.0263 7.2333 -15.6953 33.1476 -0.0000 26.2537 64.7812 -31.3172 -8.5237 -30.6345 10.1557 57.8056 20.7158 0.0000 -10.2933 4.3895 7.9743 -28.9568 32.8623 0.0000 -24.3270 -31.8147 12.0734 2.3138 19.9527 -0.0000 0.0000 -15.4151 17.3140 -7.8893 8.7968 0.0000 -0.0000 -34.9515 2.1156 -11.0627 16.9942 0.0000 -0.0000 -10.6600 -6.0421 19.4793 13.2974 0.0000 -0.0000
 3.4873 35.9211 4.1042 107.3382 -59.7829 111.3984 -31.1268 -12.6072 -10.1708 53.5202 -22.2375 0.1629 5.6318 -13.8121 29.1581 -104.5035 -39.0617 -142.8585 -93.6662 -0.0000 -1.0766 2.0226 7.2002 -15.7360 33.1476 -0.0000 26.2537 65.1314 -31.4549 -8.3326 -29.4415 12.1433 57.6364 19.6484 0.0000 -8.7416 3.8575 7.9305 -26.0452 32.8623 0.0000 -24.3270 -31.8419 12.0575 2.3123 19.9564 -0.0000 0.0000 -15.3973 17.2756 -7.8954 8.7781 0.0000 -0.0000 -34.9603 2.1633 -11.0588 17.0306 0.0000 -0.0000 -10.6860 -6.1445 19.4746 13.2903 -0.0000 -0.0000
 3.4914 35.9203 4.1014 107.1049 -59.8756 111.1363 -31.0190 -12.6300 -10.1882 53.5380 -22.2366 0.1219 5.6338 -13.8557 29.0952 -104.5892 -39.1232 -142.9579 -93.6569 -0.0000 -1.1821 2.0110 7.2047 -15.6407 33.1476 -0.0000 26.2537 65.4654 -31.5516 -8.1078 -28.1183 14.3274 57.3549 18.6589 0.0000 -7.0368 3.3703 7.8756 -23.2572 32.8623 0.0000 -24.3270 -31.8409 11.9243 2.3030 19.9988 0.0000 -0.0000 -15.3946 17.2566 -7.9167 8.8069 -0.0000 0.0000 -34.8935 2.0895 -11.0744 17.0423 -0.0000 -0.0000 -10.7160 -6.2129 19.4564 13.2798 -0.0000 0.0000
 3.4939 35.9195 4.0971 106.9602 -59.9539 110.9611 -30.9173 -12.6503 -10.1953 53.5620 -22.2263 0.0767 5.6372 -13.8459 29.0255 -104.7139 -39.1923 -143.0714 -93.6631 -0.0000 -1.2813 2.0125 7.2689 -15.5209 33.1476 -0.0000 26.2537 65.7248 -31.5895 -7.9236 -26.6586 16.5781 56.9557 17.8629 0.0000 -5.3422 2.8528 7.7101 -20.3765 32.8623 0.0000 -24.3270 -31.8275 11.8435 2.3125 20.0306 0.0000 -0.0000 -15.3821 17.2346 -7.9320 8.7160 0.0000 0.0000 -34.8379 2.0320 -11.0710 17.0653 0.0000 0.0000 -10.7437 -6.2745 19.4530 13.2790 -0.0000 -0.0000
 3.4954 35.9194 4.0933 106.8772 -60.0098 110.8576 -30.8446 -12.6660 -10.2016 53.5873 -22.1596 -0.0259 5.6724 -13.8038 28.9519 -104.8943 -39.2858 -143.2025 -93.7045 -0.0000 -1.1574 2.0185 7.4089 -15.2864 33.1476 -0.0000 26.2537 65.9475 -31.6057 -7.8170 -25.1595 18.8382 56.5528 17.2124 0.0000 -3.3716 2.2705 7.4366 -17.0317 32.8623 0.0000 -24.3270 -31.8095 11.8179 2.3253 20.0444 0.0000 -0.0000 -15.3799 17.1888 -7.9240 8.7523 -0.0000 0.0000 -34.7875 2.0112 -11.0656 17.0690 -0.0000 -0.0000 -10.7550 -6.3193 19.4658 13.3058 -0.0000 0.0000
 3.4968 35.9194 4.0900 106.7987 -60.0652 110.7617 -30.7663 -12.6733 -10.2043 53.6085 -22.0575 -0.1194 5.7014 -13.7415 28.8702 -105.0752 -39.3513 -143.3369 -93.6986 -0.0000 -1.1774 2.0186 7.4642 -15.1796 33.1476 -0.0000 26.2537 66.1911 -31.5818 -7.6507 -23.5879 21.1053 56.0116 16.7518 0.0000 -1.3926 1.7181 7.1367 -13.5740 32.8623 0.0000 -24.3270 -31.7828 11.7899 2.3348 20.0457 0.0000 -0.0000 -15.3644 17.1476 -7.9814 8.7179 0.0000 0.0000 -34.7422 1.9810 -11.0684 17.0802 -0.0000 -0.0000 -10.7784 -6.3608 19.5258 13.3787 0.0000 0.0000
